<svg width="500" height="307" version="1.1" xmlns="http://www.w3.org/2000/svg">
 <g fill="#061EFF">
  <path d="m459.25 284.56 4.2771-8.2487c4.0098 2.7114 10.349 4.6208 16.077 4.6208 6.9503 0 9.738-1.9094 9.738-5.1172 0-8.8597-28.718-0.53463-28.718-19.056 0-8.7833 7.905-14.512 20.431-14.512 6.1865 0 13.213 1.4894 17.414 4.0098l-4.1625 8.2487c-4.3535-2.5968-8.8597-3.4751-13.213-3.4751-6.683 0-9.8144 2.1767-9.8144 5.2318 0 9.3943 28.718 1.0311 28.718 19.209 0 8.7069-8.0196 14.359-20.965 14.359-7.8668-0.0382-15.619-2.2913-19.782-5.27m-55.679-18.598c0-13.939 10.425-23.753 24.708-23.753 14.435 0 24.784 9.8144 24.784 23.753 0 13.939-10.349 23.83-24.784 23.83-14.282 0-24.708-9.929-24.708-23.83m38.532 0c0-8.8597-5.9192-14.512-13.824-14.512-7.8286 0-13.748 5.6519-13.748 14.512 0 8.8597 5.9192 14.512 13.748 14.512 7.905 0 13.824-5.6519 13.824-14.512m-59.956-16.459c3.1314-4.8881 8.7833-7.294 16.459-7.294v10.349c-0.87834-0.19094-1.6421-0.26731-2.4441-0.26731-8.2487 0-13.48 4.8881-13.48 14.359v22.531h-10.884v-46.475h10.349zm-67.67 17.567v-24.364h10.884v24.364c0 8.7833 4.8881 13.404 11.838 13.404 6.9503 0 11.838-4.4298 11.838-13.404v-24.364h10.845v24.364c0 15.581-10.005 22.722-22.722 22.722-12.679 0-22.684-7.4849-22.684-22.722m-22.34-24.364h10.349v39.41c0 16.879-8.7833 24.517-25.052 24.517-8.7069 0-17.299-2.2531-22.607-6.6066l4.8881-8.1723c4.0862 3.3988 10.693 5.5755 17.147 5.5755 10.273 0 14.779-4.6972 14.779-14.091v-2.4441c-3.8188 4.1625-9.318 6.1865-15.581 6.1865-13.29 0-23.486-9.0506-23.486-22.531 0-13.48 10.196-22.34 23.486-22.34 6.5302 0 12.258 2.1004 16.077 6.683zm-0.38188 21.844c0-7.8286-5.9192-13.137-14.092-13.137-8.2487 0-14.168 5.3082-14.168 13.137 0 7.905 5.9192 13.328 14.168 13.328 8.2105 0 14.092-5.3846 14.092-13.328m-47.239 4.8881h-36.47c1.2984 6.7975 6.9503 11.151 15.046 11.151 5.2318 0 9.318-1.6421 12.602-5.0409l5.8428 6.683c-4.1625 4.9645-10.693 7.5613-18.712 7.5613-15.581 0-25.663-10.005-25.663-23.83s10.196-23.753 24.02-23.753c13.557 0 23.486 9.4707 23.486 24.02 0.0382 0.84014-0.0382 2.1386-0.15276 3.2078m-36.508-7.2176h26.35c-0.87834-6.683-5.9956-11.304-13.137-11.304-7.0648 0-12.182 4.5062-13.213 11.304m-58.39 22.34 4.2771-8.2487c4.0098 2.7114 10.349 4.6208 16.077 4.6208 6.9503 0 9.738-1.9094 9.738-5.1172 0-8.8597-28.718-0.53463-28.718-19.056 0-8.7833 7.905-14.512 20.431-14.512 6.1865 0 13.213 1.4894 17.414 4.0098l-4.1625 8.2487c-4.3535-2.5968-8.8597-3.4751-13.213-3.4751-6.683 0-9.8144 2.1767-9.8144 5.2318 0 9.3943 28.718 1.0311 28.718 19.209 0 8.7069-8.0196 14.359-20.965 14.359-7.8668-0.0382-15.619-2.2913-19.782-5.27"/>
  <path d="m396.13 42.066c-4.9645 0-8.0959 3.1314-8.0959 8.0959v81.838c0 22.111-10.578 31.124-26.159 31.124-16.192 0-26.465-8.7069-26.465-31.124v-81.838c0-4.9645-2.7878-8.0959-8.0959-8.0959h-27.687c-4.9645 0-8.0959 3.1314-8.0959 8.0959v83.709c0 45.444 30.818 66.6 70.037 66.6 40.441 0 70.343-22.417 70.343-66.6v-83.709c0-4.9645-2.7878-8.0959-8.0959-8.0959zm-199.5 122.62 71.603-86.191c2.4822-3.0933 3.7425-5.9192 3.7425-9.9672v-18.369c0-4.9645-2.7878-8.0959-8.0959-8.0959h-105.21c-4.9645 0-8.0959 3.1314-8.0959 8.0959v16.803c0 4.9645 3.1314 8.0959 8.0959 8.0959h65.035l-71.565 86.229c-2.4822 3.1314-3.7425 5.9192-3.7425 9.9672v18.369c0 4.9645 2.7878 8.0959 8.0959 8.0959h110.17c4.9645 0 8.0959-3.1314 8.0959-8.0959v-16.803c0-4.9645-2.7878-8.0959-8.0959-8.0959h-70.037zm-130.07-125.41c-32.689 0-56.939 17.108-61.941 45.75-0.91652 5.3082 2.1767 8.4014 7.4849 8.4014h21.156c4.659 0 7.4849-2.4822 8.7069-7.1412 2.7877-8.0959 9.3561-13.71 22.722-13.71 15.886 0 22.722 10.273 22.722 25.51v91.499c0 4.9645 3.1314 8.0959 8.0959 8.0959h25.815c4.9645 0 8.0959-3.1314 8.0959-8.0959v-92.11c0-31.735-22.417-58.199-62.858-58.199m397.08-38.914c-4.9645 0-8.0959 2.7877-8.0959 8.0959v181.13c0 4.9645 3.1314 8.0959 8.0959 8.0959h27.687c4.9645 0 8.0959-2.7878 8.0959-8.0959v-181.13c0-4.9645-2.7878-8.0959-8.0959-8.0959z"/>
  <path d="m46.628 200.17c7.1412 0 13.06-0.91652 18.674-3.1314 5.6137-2.1767 8.0959-5.6137 9.3561-11.189l2.4822-10.884c0.95471-3.7425-0.91652-5.27-4.659-4.3535-3.7425 0.61101-8.0959 0.91652-12.144 0.91652-14.932 0-21.156-7.1412-21.156-16.497 0-18.674 27.687-33.606 107.69-43.573 4.659-0.61102 4.3535-5.9192 0-5.9192-96.158 0.61102-146.87 19.896-146.87 55.411-0.038188 22.417 18.025 39.219 46.628 39.219" fill="#00B7FF"/>
 </g>
</svg>
